<svg xmlns="http://www.w3.org/2000/svg" preserveAspectRatio="xMidYMid" width="82.063" height="86.313" viewBox="0 0 82.063 86.313"><defs><style>.cls-1{fill:#fff;fill-rule:evenodd}</style></defs><path d="M80.547 66.26L62.475 76.823a3.08 3.08 0 0 1-.496.223c-.247.19-.52.306-.81.306H38.01c-1.657 5.2-6.522 8.97-12.27 8.97-7.112 0-12.878-5.77-12.878-12.884 0-7.116 5.766-12.883 12.88-12.883 5.732 0 10.585 3.75 12.254 8.93H59.44l17.173-10.04a3.066 3.066 0 0 1 4.19 1.122l.866 1.5a3.067 3.067 0 0 1-1.123 4.19zM25.72 67.424c-3.32 0-6.014 2.687-6.014 6.002S22.4 79.43 25.72 79.43c3.322 0 6.014-2.688 6.014-6.003s-2.692-6.002-6.014-6.002zM58.195 47.65c-5.744 0-10.605-3.768-12.26-8.968H25.12c-1.654 5.2-6.51 8.968-12.25 8.968-7.1 0-12.858-5.768-12.858-12.883 0-5.7 3.7-10.528 8.822-12.225V3.076A3.067 3.067 0 0 1 11.9.01h1.9a3.067 3.067 0 0 1 3.066 3.066v19.45a12.893 12.893 0 0 1 8.254 8.327h20.814c1.656-5.2 6.517-8.968 12.26-8.968 7.11 0 12.87 5.767 12.87 12.882 0 7.115-5.76 12.883-12.87 12.883zM12.862 28.753a6.004 6.004 0 0 0-6.006 6.002 6.004 6.004 0 0 0 6.006 6.002 6.004 6.004 0 0 0 6.006-6.002 6.004 6.004 0 0 0-6.006-6.002zm45.333 0a6.002 6.002 0 1 0 0 12.004 6.002 6.002 0 0 0 0-12.004z" class="cls-1"/></svg>